<svg xmlns="http://www.w3.org/2000/svg" viewBox="0 0 24 24"><style><![CDATA[.B{fill:#f47521}.C{fill:#008d7f}.D{fill:#e1ae1f}.E{fill:#00a4e6}.F{fill:#eb2f06}.G{fill:#336cce}.H{fill:#8d0a15}.I{fill:#5aad39}]]></style><g transform="matrix(.228179 0 0 .228179 -113.030425 4.500788)"><g class="H"><circle cx="526.276" cy="56.087" r="2.5"/><circle cx="520.076" cy="56.087" r="2.5"/><circle cx="513.9" cy="56.087" r="2.5"/><circle cx="507.718" cy="56.087" r="2.5"/><circle cx="501.504" cy="56.087" r="2.5"/></g><g class="F"><circle cx="527.146" cy="49.926" r="2.5"/><circle cx="529.673" cy="44.331" r="2.5"/></g><g class="C"><circle cx="533.749" cy="39.696" r="2.5"/><circle cx="538.992" cy="36.36" r="2.5"/></g><circle cx="544.881" cy="34.613" r="2.5" class="I"/><g class="H"><circle cx="520.776" cy="49.88" r="2.5"/><circle cx="514.458" cy="49.88" r="2.5"/><circle cx="508.186" cy="49.809" r="2.5"/></g><g class="F"><circle cx="522.842" cy="44" r="2.5"/><circle cx="516.195" cy="43.788" r="2.5"/><circle cx="509.706" cy="43.671" r="2.5"/><circle cx="503.121" cy="44.066" r="2.5"/><circle cx="526.172" cy="38.695" r="2.5"/><circle cx="518.994" cy="38.158" r="2.5"/><circle cx="512.09" cy="37.809" r="2.5"/><circle cx="505.033" cy="38.315" r="2.5"/></g><circle cx="530.542" cy="34.287" r="2.5" class="C"/><circle cx="522.79" cy="33.125" r="2.5" class="F"/><g class="C"><circle cx="535.834" cy="30.951" r="2.5"/><circle cx="527.377" cy="28.888" r="2.5"/></g><circle cx="519.472" cy="27.574" r="2.5" fill="#e55039"/><circle cx="532.748" cy="25.528" r="2.5" class="C"/><g class="I"><circle cx="529.661" cy="20.218" r="2.5"/><circle cx="535.595" cy="17.765" r="2.5"/></g><g class="G"><circle cx="541.852" cy="10.012" r="2.5"/><circle cx="544.789" cy="22.15" r="2.5"/><circle cx="541.662" cy="16.315" r="2.5"/></g><g class="I"><circle cx="541.732" cy="28.905" r="2.5"/><circle cx="538.596" cy="23.295" r="2.5"/><circle cx="535.949" cy="11.184" r="2.5"/><circle cx="530.121" cy="13.199" r="2.5"/><circle cx="524.741" cy="15.95" r="2.5"/></g><g class="C"><circle cx="519.647" cy="19.258" r="2.5"/><circle cx="524.241" cy="23.531" r="2.5"/></g><circle cx="515.112" cy="23.205" r="2.5" fill="#e55039"/><g class="F"><circle cx="511.136" cy="27.805" r="2.5"/><circle cx="515.377" cy="32.403" r="2.5"/><circle cx="507.721" cy="32.845" r="2.5"/></g><circle cx="501.896" cy="49.969" r="2.5" class="H"/><g transform="matrix(-1 0 0 1 653.56041 -121.96703)"><g class="D"><circle cx="83.942" cy="178.054" r="2.5"/><circle cx="77.742" cy="178.054" r="2.5"/><circle cx="71.566" cy="178.054" r="2.5"/><circle cx="65.384" cy="178.054" r="2.5"/><circle cx="59.17" cy="178.054" r="2.5"/><circle cx="84.812" cy="171.893" r="2.5"/></g><circle cx="87.339" cy="166.298" r="2.5" class="B"/><g class="E"><circle cx="91.415" cy="161.663" r="2.5"/><circle cx="96.658" cy="158.327" r="2.5"/></g><circle cx="102.547" cy="156.58" r="2.5" class="G"/><g class="D"><circle cx="78.442" cy="171.847" r="2.5"/><circle cx="72.124" cy="171.847" r="2.5"/><circle cx="65.852" cy="171.776" r="2.5"/></g><circle cx="80.508" cy="165.967" r="2.5" class="B"/><g class="D"><circle cx="73.861" cy="165.755" r="2.5"/><circle cx="67.372" cy="165.638" r="2.5"/><circle cx="60.787" cy="166.033" r="2.5"/></g><g class="B"><circle cx="83.838" cy="160.662" r="2.5"/><circle cx="76.66" cy="160.125" r="2.5"/></g><g class="D"><circle cx="69.756" cy="159.776" r="2.5"/><circle cx="62.699" cy="160.282" r="2.5"/></g><circle cx="88.208" cy="156.254" r="2.5" class="E"/><circle cx="80.456" cy="155.092" r="2.5" class="B"/><g class="E"><circle cx="93.5" cy="152.918" r="2.5"/><circle cx="85.043" cy="150.855" r="2.5"/></g><circle cx="77.138" cy="149.541" r="2.5" class="B"/><g class="E"><circle cx="90.414" cy="147.495" r="2.5"/><circle cx="87.327" cy="142.185" r="2.5"/></g><g class="G"><circle cx="93.261" cy="139.732" r="2.5"/><circle cx="99.518" cy="131.979" r="2.5"/><circle cx="102.455" cy="144.117" r="2.5"/><circle cx="99.328" cy="138.282" r="2.5"/><circle cx="99.398" cy="150.872" r="2.5"/><circle cx="96.262" cy="145.262" r="2.5"/><circle cx="93.615" cy="133.151" r="2.5"/></g><g class="E"><circle cx="87.787" cy="135.166" r="2.5"/><circle cx="82.407" cy="137.917" r="2.5"/><circle cx="77.313" cy="141.225" r="2.5"/><circle cx="81.907" cy="145.498" r="2.5"/></g><g class="B"><circle cx="72.778" cy="145.172" r="2.5"/><circle cx="68.802" cy="149.772" r="2.5"/><circle cx="73.043" cy="154.37" r="2.5"/></g><g class="D"><circle cx="65.387" cy="154.812" r="2.5"/><circle cx="59.562" cy="171.936" r="2.5"/></g></g><g transform="matrix(-1 0 0 1 442.334 -121.967)" class="G"><circle cx="-105.617" cy="150.162" r="2.5"/><circle cx="-105.63" cy="137.776" r="2.5"/><circle cx="-105.613" cy="131.611" r="2.5"/></g></g></svg>
